# xmcd
#
# Track frame offsets:
#	150
#	18755
#	36886
#	54569
#	72268
#	89618
#	105616
#	124763
#	146528
#	164729
#	186410
#
# Disc length: 2764 seconds
#
# Revision: 0
# Processed by: cddbd v1.5.1PL2 Copyright (c) Steve Scherf et al.
# Submitted via: dBpowerAMP V4.0
#
DISCID=9c0aca0b
DTITLE=我型我show之型男show女 - 我型我show之型男show女
DYEAR=1900
DGENRE=Pop
TTITLE0=苟伟 - 我型我show
TTITLE1=刘维 - I Do
TTITLE2=格里杰夫 - 吻别(Rock Version)
TTITLE3=王子 - 错吻你的脸
TTITLE4=薛之谦/君君/刘钰佳/贾青 - OK OK
TTITLE5=袁成杰/刘钰佳 - 无可代替
TTITLE6=薛之谦 - 黄色枫叶
TTITLE7=赵英俊 - 刺激2005
TTITLE8=朱杰 - 计算错误
TTITLE9=杉籽伽 - 这首歌我唱给你听
TTITLE10=张杰/苟伟 - 北斗星的爱
EXTD=
EXTT0=
EXTT1=
EXTT2=
EXTT3=
EXTT4=
EXTT5=
EXTT6=
EXTT7=
EXTT8=
EXTT9=
EXTT10=
PLAYORDER=
